<svg viewBox="0 0 900 360" width="900" xmlns="http://www.w3.org/2000/svg" font-family="'Microsoft YaHei','PingFang SC',sans-serif">
  <defs>
    <marker id="arw" viewBox="0 0 10 10" refX="9" refY="5" markerWidth="7" markerHeight="7" orient="auto-start-reverse">
      <path d="M0,0 L10,5 L0,10 z" fill="#5c6bc0"/>
    </marker>
  </defs>
  <rect width="900" height="360" fill="#ffffff"/>
  <rect x="40" y="120" width="220" height="120" rx="14" fill="#eef1fb" stroke="#5c6bc0" stroke-width="2"/>
  <text x="150" y="172" text-anchor="middle" font-size="17" font-weight="bold" fill="#20242e">dsh</text>
  <text x="150" y="200" text-anchor="middle" font-size="13.5" fill="#5a6072">五扇门通向外部世界</text>
  <rect x="560" y="16" width="300" height="52" rx="10" fill="#eef1fb" stroke="#5c6bc0" stroke-width="1.6"/>
  <text x="710" y="38" text-anchor="middle" font-size="15" font-weight="bold" fill="#20242e">MCP 服务器</text>
  <text x="710" y="58" text-anchor="middle" font-size="13" fill="#5a6072">第三方工具的万能插座</text>
  <rect x="560" y="84" width="300" height="52" rx="10" fill="#eef1fb" stroke="#5c6bc0" stroke-width="1.6"/>
  <text x="710" y="106" text-anchor="middle" font-size="15" font-weight="bold" fill="#20242e">LSP 语言服务器</text>
  <text x="710" y="126" text-anchor="middle" font-size="13" fill="#5a6072">IDE 同款代码理解力</text>
  <rect x="560" y="152" width="300" height="52" rx="10" fill="#eef1fb" stroke="#5c6bc0" stroke-width="1.6"/>
  <text x="710" y="174" text-anchor="middle" font-size="15" font-weight="bold" fill="#20242e">skill 技能库</text>
  <text x="710" y="194" text-anchor="middle" font-size="13" fill="#5a6072">按需加载的成捆诀窍</text>
  <rect x="560" y="220" width="300" height="52" rx="10" fill="#eef1fb" stroke="#5c6bc0" stroke-width="1.6"/>
  <text x="710" y="242" text-anchor="middle" font-size="15" font-weight="bold" fill="#20242e">web 联网</text>
  <text x="710" y="262" text-anchor="middle" font-size="13" fill="#5a6072">搜索与抓取</text>
  <rect x="560" y="288" width="300" height="52" rx="10" fill="#fff8e1" stroke="#f9a825" stroke-width="1.8"/>
  <text x="710" y="310" text-anchor="middle" font-size="15" font-weight="bold" fill="#20242e">subagent 委派</text>
  <text x="710" y="330" text-anchor="middle" font-size="13" fill="#b26a00">把活交给另一个 agent</text>
  <line x1="262" y1="150" x2="556" y2="44" stroke="#5c6bc0" stroke-width="1.7" marker-end="url(#arw)"/>
  <line x1="262" y1="162" x2="556" y2="110" stroke="#5c6bc0" stroke-width="1.7" marker-end="url(#arw)"/>
  <line x1="262" y1="180" x2="556" y2="178" stroke="#5c6bc0" stroke-width="1.7" marker-end="url(#arw)"/>
  <line x1="262" y1="198" x2="556" y2="246" stroke="#5c6bc0" stroke-width="1.7" marker-end="url(#arw)"/>
  <line x1="262" y1="210" x2="556" y2="312" stroke="#5c6bc0" stroke-width="1.7" marker-end="url(#arw)"/>
</svg>
